Coordinates
version=1
nRows=54
nColumns=12
inDegrees=yes

Units are S.I. units (second, meters, Newtons, ...)
Angles are in degrees

endheader
time	SC_y	SC_z	SC_x	AC_y	AC_z	AC_x	GH_y	GH_z	GH_yy	EL_x	PS_y
       0.0              -59.48          36.43          56.16          32.44         -6.043          -18.3         -102.7          89.56         -165.5          60.82          28.29
   0.04923              -59.48          36.43          56.17          32.45         -6.044          -18.3         -102.7          89.55         -165.5          60.82           28.3
   0.09846              -59.48          36.43          56.17          32.45         -6.045          -18.3         -102.7          89.54         -165.5          60.83          28.32
    0.1477              -59.48          36.43          56.17          32.46         -6.047         -18.29         -102.6          89.53         -165.5          60.84          28.34
    0.1969              -59.48          36.43          56.18          32.46         -6.048         -18.29         -102.6          89.52         -165.5          60.85          28.36
    0.2462              -59.48          36.42          56.18          32.47          -6.05         -18.28         -102.6          89.51         -165.5          60.86          28.37
    0.2954              -59.48          36.42          56.19          32.47         -6.052         -18.28         -102.6           89.5         -165.5          60.87           28.4
    0.3446              -59.48          36.42          56.19          32.48         -6.054         -18.27         -102.5          89.49         -165.5          60.88          28.42
    0.3938              -59.48          36.42           56.2          32.48         -6.056         -18.27         -102.5          89.47         -165.5          60.89          28.44
    0.4431              -59.48          36.42           56.2          32.49         -6.058         -18.26         -102.4          89.46         -165.5           60.9          28.47
    0.4923              -59.48          36.41          56.21           32.5         -6.061         -18.26         -102.4          89.45         -165.4          60.92          28.49
    0.5415              -59.48          36.41          56.22          32.51         -6.063         -18.25         -102.3          89.43         -165.4          60.93          28.52
    0.5908              -59.48          36.41          56.22          32.52         -6.066         -18.24         -102.3          89.41         -165.4          60.95          28.55
      0.64              -59.48           36.4          56.23          32.53         -6.069         -18.23         -102.2           89.4         -165.4          60.97          28.59
    0.6892              -59.48           36.4          56.24          32.54         -6.072         -18.22         -102.2          89.38         -165.4          60.99          28.62
    0.7385              -59.47          36.39          56.25          32.55         -6.076         -18.21         -102.1          89.35         -165.4          61.01          28.66
    0.7877              -59.47          36.39          56.26          32.56         -6.079          -18.2         -102.0          89.33         -165.4          61.03          28.71
    0.8369              -59.47          36.39          56.27          32.57         -6.084         -18.19         -102.0          89.31         -165.4          61.05          28.75
    0.8861              -59.47          36.38          56.28          32.59         -6.088         -18.18         -101.9          89.28         -165.3          61.08          28.81
    0.9354              -59.47          36.37           56.3           32.6         -6.093         -18.17         -101.8          89.25         -165.3          61.11          28.86
    0.9846              -59.47          36.37          56.31          32.62         -6.099         -18.15         -101.7          89.22         -165.3          61.14          28.92
     1.034              -59.47          36.36          56.33          32.64         -6.105         -18.13         -101.6          89.18         -165.3          61.17          28.99
     1.083              -59.47          36.35          56.35          32.66         -6.111         -18.12         -101.4          89.14         -165.3          61.21          29.07
     1.132              -59.46          36.34          56.36          32.68         -6.119          -18.1         -101.3          89.09         -165.2          61.25          29.15
     1.182              -59.46          36.33          56.39          32.71         -6.127         -18.07         -101.2          89.04         -165.2           61.3          29.24
     1.231              -59.46          36.32          56.41          32.74         -6.136         -18.05         -101.0          88.99         -165.2          61.35          29.35
      1.28              -59.46          36.31          56.44          32.77         -6.146         -18.02         -100.8          88.93         -165.1          61.41          29.46
     1.329              -59.45           36.3          56.47          32.81         -6.158         -17.99         -100.6          88.86         -165.1          61.48          29.59
     1.378              -59.45          36.28           56.5          32.85         -6.171         -17.95         -100.3          88.78         -165.0          61.55          29.74
     1.428              -59.45          36.27          56.54           32.9         -6.186         -17.91         -100.1          88.69         -165.0          61.64          29.91
     1.477              -59.44          36.25          56.59          32.95         -6.203         -17.87         -99.74          88.59         -164.9          61.73           30.1
     1.526              -59.44          36.22          56.64          33.01         -6.222         -17.81         -99.38          88.47         -164.9          61.85          30.32
     1.575              -59.43           36.2           56.7          33.09         -6.244         -17.75         -98.96          88.33         -164.8          61.97          30.57
     1.625              -59.42          36.17          56.77          33.17          -6.27         -17.68         -98.48          88.18         -164.7          62.12          30.86
     1.674              -59.41          36.13          56.85          33.27         -6.301          -17.6         -97.91          87.99         -164.6           62.3          31.21
     1.723               -59.4          36.09          56.94          33.38         -6.337          -17.5         -97.24          87.77         -164.4          62.51          31.61
     1.772              -59.39          36.04          57.06          33.52         -6.379         -17.38         -96.45          87.52         -164.3          62.75          32.09
     1.822              -59.38          35.98          57.19          33.68          -6.43         -17.25          -95.5          87.21         -164.1          63.04          32.67
     1.871              -59.36          35.91          57.35          33.88         -6.492         -17.08         -94.35          86.83         -163.9           63.4          33.37
      1.92              -59.34          35.82          57.55          34.12         -6.568         -16.87         -92.94          86.38         -163.6          63.83          34.22
     1.969              -59.32          35.71           57.8          34.42         -6.661         -16.62          -91.2          85.81         -163.3          64.37          35.27
     2.018              -59.29          35.57          58.11          34.79         -6.777          -16.3         -89.04          85.11         -162.9          65.04          36.58
     2.068              -59.25           35.4           58.5          35.25         -6.924          -15.9         -86.31          84.22         -162.3          65.88          38.23
     2.117               -59.2          35.19          58.99          35.85          -7.11         -15.39         -82.84          83.09         -161.7          66.95          40.34
     2.166              -59.13          34.91          59.62          36.61         -7.348         -14.74          -78.4          81.65         -160.8          68.31          43.02
     2.215              -59.05          34.55          60.43          37.58         -7.654          -13.9          -72.7           79.8         -159.7          70.07          46.47
     2.265              -58.95          34.09          61.47          38.83         -8.044         -12.84         -65.43          77.44         -158.3          72.31          50.88
     2.314              -58.81          33.52          62.77           40.4         -8.535          -11.5         -56.27          74.47         -156.5          75.13          56.42
     2.363              -58.65          32.82          64.35          42.31         -9.134         -9.862         -45.12          70.84         -154.3          78.57          63.18
     2.412              -58.47          32.01          66.19          44.52         -9.827         -7.967          -32.2          66.64         -151.8          82.55          71.01
     2.462              -58.26          31.13          68.18          46.92         -10.58         -5.916          -18.2           62.1         -149.1          86.87          79.48
     2.511              -58.06          30.25          70.17          49.31         -11.33         -3.864         -4.209          57.55         -146.4          91.18          87.96
      2.56              -57.88          29.44           72.0          51.53         -12.02          -1.97          8.716          53.35         -143.9          95.17          95.79
     2.609              -57.71          28.74          73.59          53.44         -12.62        -0.3355          19.87          49.73         -141.7           98.6          102.5
